<!DOCTYPE svg PUBLIC "-//W3C//DTD SVG 1.1//EN" "http://www.w3.org/Graphics/SVG/1.1/DTD/svg11.dtd">
<!-- Uploaded to: SVG Repo, www.svgrepo.com, Transformed by: SVG Repo Mixer Tools -->
<svg fill="#ffffff" width="100px" height="100px" viewBox="0 0 24 24" id="clipboard-edit" data-name="Line Color" xmlns="http://www.w3.org/2000/svg" class="icon line-color" stroke="#ffffff">
<g id="SVGRepo_bgCarrier" stroke-width="0"/>
<g id="SVGRepo_tracerCarrier" stroke-linecap="round" stroke-linejoin="round"/>
<g id="SVGRepo_iconCarrier">
<path id="primary" d="M13,5h3a1,1,0,0,1,1,1v4" style="fill: none; stroke: 000000; stroke-linecap: round; stroke-linejoin: round; stroke-width: 2;"/>
<path id="primary-2" data-name="primary" d="M7,5H4A1,1,0,0,0,3,6V20a1,1,0,0,0,1,1H16a1,1,0,0,0,1-1V16" style="fill: none; stroke: 000000; stroke-linecap: round; stroke-linejoin: round; stroke-width: 2;"/>
<path id="secondary" d="M13,4a1,1,0,0,0-1-1H8A1,1,0,0,0,7,4V7h6Zm7.71,6.69-1.4-1.4a1,1,0,0,0-1.4,0L13,14.2V17h2.8l4.91-4.91A1,1,0,0,0,20.71,10.69Z" style="fill: none; stroke: ; stroke-linecap: round; stroke-linejoin: round; stroke-width: 2;"/>
</g>
</svg>